# xmcd CD database file
#
# Track frame offsets:
#	150
#	15953
#	35225
#	61780
#	79238
#	99334
#	112953
#	129172
#	148138
#	164787
#	179081
#	196725
#	215444
#	229815
#	251370
#	265997
#	288897
#
# Disc length: 4267 seconds
#
# Revision: 4
# Processed by: cddbd v1.4PL0 Copyright (c) Steve Scherf et al.
# Submitted via: CDex 1.51
#
DISCID=ee10a911
DTITLE=Martin Müller - Progresso
DYEAR=2003
DGENRE=Jazz
TTITLE0=Colours of Sky
TTITLE1=Aqua de beber
TTITLE2=Samba em preludio
TTITLE3=Parazula
TTITLE4=Garota de Ipanema
TTITLE5=Berimbau
TTITLE6=Lamentos do morro
TTITLE7=Canto de ossanha
TTITLE8=Chovendo na Roseira
TTITLE9=Luiza
TTITLE10=Baiao de Carneval
TTITLE11=Tico, tico
TTITLE12=Aqua e vino
TTITLE13=A Felicidade
TTITLE14=Adeus Chediak
TTITLE15=Manha de Carneval
TTITLE16=Amor em paz
EXTD=YEAR: 2003
EXTT0=
EXTT1=
EXTT2=
EXTT3=
EXTT4=
EXTT5=
EXTT6=
EXTT7=
EXTT8=
EXTT9=
EXTT10=
EXTT11=
EXTT12=
EXTT13=
EXTT14=
EXTT15=
EXTT16=
PLAYORDER=
